<!DOCTYPE svg PUBLIC "-//W3C//DTD SVG 1.1//EN" "http://www.w3.org/Graphics/SVG/1.1/DTD/svg11.dtd">
<svg width="24" height="24" viewBox="0 0 24 24" fill="none" xmlns="http://www.w3.org/2000/svg">
                        <path fill-rule="evenodd" clip-rule="evenodd"
                            d="M24 12C24 18.6274 18.6274 24 12 24C5.37258 24 0 18.6274 0 12C0 5.37258 5.37258 0 12 0C18.6274 0 24 5.37258 24 12ZM6.3965 16.1083C7.30314 17.6377 8.77625 18.748 10.4962 19.1982C12.2162 19.6484 14.0444 19.4023 15.5841 18.5133C17.1238 17.6243 18.2508 16.164 18.7208 14.4493C19.1907 12.7346 18.9657 10.9038 18.0944 9.35398L12.2456 12.7309L6.3965 16.1083ZM15.7862 6.35414C16.4927 6.88615 17.0876 7.55212 17.5368 8.31403L15.0724 9.76589C14.5504 8.88067 13.6981 8.23909 12.703 7.98227C11.7079 7.72546 10.6516 7.87445 9.76637 8.39648C8.88115 8.9185 8.23956 9.7708 7.98274 10.7659C7.72593 11.7609 7.87492 12.8173 8.39695 13.7025L5.93315 15.1552C5.02596 13.6164 4.76718 11.7803 5.21375 10.0508C5.66033 8.32126 6.77566 6.83997 8.3144 5.93277C9.85314 5.02558 11.6892 4.76681 13.4188 5.21338C14.2751 5.4345 15.0796 5.82213 15.7862 6.35414Z"
                            fill="#FEFEFE" />
                    </svg>